<?xml version="1.0" encoding="UTF-8"?>
<svg width="32px" height="32px" viewBox="0 0 32 32" version="1.1" xmlns="http://www.w3.org/2000/svg" xmlns:xlink="http://www.w3.org/1999/xlink">
    <!-- Generator: Sketch 59.1 (86144) - https://sketch.com -->
    <title>03</title>
    <desc>Created with Sketch.</desc>
    <g id="03" stroke="none" stroke-width="1" fill="none" fill-rule="evenodd">
        <g id="编组-3">
            <g id="pie-chart-circle-fil" fill-rule="nonzero">
                <rect id="矩形" fill="#000000" opacity="0" x="0" y="0" width="32" height="32"></rect>
                <path d="M26.971875,16.203125 L15.796875,16.203125 L15.796875,5.028125 C15.796875,4.890625 15.684375,4.778125 15.546875,4.778125 L14.734375,4.778125 C13.05,4.778125 11.4125,5.109375 9.875,5.759375 C8.390625,6.3875 7.053125,7.2875 5.90625,8.434375 C4.759375,9.58125 3.859375,10.915625 3.23125,12.403125 C2.58125,13.94375 2.25,15.578125 2.25,17.265625 C2.25,18.953125 2.58125,20.584375 3.23125,22.125 C3.859375,23.609375 4.759375,24.946875 5.90625,26.09375 C7.053125,27.240625 8.3875,28.140625 9.875,28.76875 C11.415625,29.421875 13.053125,29.753125 14.7375,29.753125 C16.421875,29.753125 18.059375,29.421875 19.596875,28.771875 C21.08125,28.14375 22.41875,27.24375 23.565625,26.096875 C24.7125,24.95 25.6125,23.615625 26.240625,22.128125 C26.89375,20.5875 27.225,18.95 27.225,17.265625 L27.225,16.453125 C27.221875,16.315625 27.109375,16.203125 26.971875,16.203125 Z M29.71875,14.46875 L29.6375,13.5875 C29.371875,10.7125 28.096875,8 26.040625,5.953125 C23.9875,3.9 21.271875,2.628125 18.3875,2.3625 L17.503125,2.28125 C17.35625,2.26875 17.23125,2.38125 17.23125,2.528125 L17.23125,14.51875 C17.23125,14.65625 17.34375,14.76875 17.48125,14.76875 L29.46875,14.7375 C29.615625,14.734375 29.73125,14.6125 29.71875,14.46875 Z" id="形状" fill="#8947FF"></path>
            </g>
            <path d="M30.1166698,14.7422957 L30.0309434,13.8124954 C29.7506839,10.7791041 28.4054383,7.91716533 26.2359001,5.75752261 C24.0696591,3.59128557 21.2044179,2.24933963 18.1611296,1.96908066 L17.2280303,1.88335438 C17.0730633,1.87016572 16.9411765,1.98886364 16.9411765,2.14383037 L16.9411765,14.7950504 C16.9411765,14.9401256 17.0598746,15.0588235 17.2049501,15.0588235 L29.8528962,15.0258519 C30.0078632,15.0225547 30.1298585,14.8939653 30.1166698,14.7422957 Z" id="路径" fill="#FF9329"></path>
        </g>
    </g>
</svg>