<?xml version="1.0" encoding="UTF-8"?>
<svg width="32px" height="32px" viewBox="0 0 32 32" version="1.1" xmlns="http://www.w3.org/2000/svg" xmlns:xlink="http://www.w3.org/1999/xlink">
    <!-- Generator: Sketch 59.1 (86144) - https://sketch.com -->
    <title>07</title>
    <desc>Created with Sketch.</desc>
    <g id="07" stroke="none" stroke-width="1" fill="none" fill-rule="evenodd">
        <g id="编组-7备份-3">
            <path d="M16,0 C24.836556,0 32,7.163444 32,16 C32,24.836556 24.836556,32 16,32 C7.163444,32 0,24.836556 0,16 C0,7.163444 7.163444,0 16,0 Z M15.8461538,6.46153846 C10.4932401,6.46153846 6.15384615,10.8009324 6.15384615,16.1538462 C6.15384615,21.5067599 10.4932401,25.8461538 15.8461538,25.8461538 C21.1990676,25.8461538 25.5384615,21.5067599 25.5384615,16.1538462 C25.5384615,10.8009324 21.1990676,6.46153846 15.8461538,6.46153846 Z" id="形状结合" fill="#FFD3DA"></path>
            <path d="M16,3.69230769 C22.7973508,3.69230769 28.3076923,9.20264923 28.3076923,16 C28.3076923,22.7973508 22.7973508,28.3076923 16,28.3076923 C9.20264923,28.3076923 3.69230769,22.7973508 3.69230769,16 C3.69230769,9.20264923 9.20264923,3.69230769 16,3.69230769 Z M16,7.38461538 C11.2418545,7.38461538 7.38461538,11.2418545 7.38461538,16 C7.38461538,20.7581455 11.2418545,24.6153846 16,24.6153846 C20.7581455,24.6153846 24.6153846,20.7581455 24.6153846,16 C24.6153846,11.2418545 20.7581455,7.38461538 16,7.38461538 Z" id="形状结合" fill="#F74455"></path>
            <g id="heart-fill" transform="translate(11.692308, 12.000000)" fill="#F74455" fill-rule="nonzero">
                <path d="M8.25961538,1.80384615 C8.13076923,1.50480769 7.94615385,1.2375 7.7125,1.00769231 C7.47884615,0.778846154 7.20769231,0.6 6.90480769,0.474038462 C6.59230769,0.344230769 6.26153846,0.278846154 5.92019231,0.278846154 C5.44615385,0.278846154 4.98365385,0.408653846 4.58173077,0.653846154 C4.48557692,0.7125 4.39423077,0.776923077 4.30769231,0.847115385 C4.22115385,0.776923077 4.12980769,0.7125 4.03365385,0.653846154 C3.63173077,0.408653846 3.16923077,0.278846154 2.69519231,0.278846154 C2.35384615,0.278846154 2.02307692,0.344230769 1.71057692,0.474038462 C1.40865385,0.599038462 1.13653846,0.778846154 0.902884615,1.00769231 C0.668269231,1.2375 0.484615385,1.50480769 0.355769231,1.80384615 C0.222115385,2.11442308 0.153846154,2.44423077 0.153846154,2.78365385 C0.153846154,3.10384615 0.219230769,3.4375 0.349038462,3.77692308 C0.457692308,4.06057692 0.613461538,4.35480769 0.8125,4.65192308 C1.12788462,5.12211538 1.56153846,5.6125 2.1,6.10961538 C2.99230769,6.93365385 3.87596154,7.50288462 3.91346154,7.52596154 L4.14134615,7.67211538 C4.24230769,7.73653846 4.37211538,7.73653846 4.47307692,7.67211538 L4.70096154,7.52596154 C4.73846154,7.50192308 5.62115385,6.93365385 6.51442308,6.10961538 C7.05288462,5.6125 7.48653846,5.12211538 7.80192308,4.65192308 C8.00096154,4.35480769 8.15769231,4.06057692 8.26538462,3.77692308 C8.39519231,3.4375 8.46058694,3.10384615 8.46058694,2.78365385 C8.46153846,2.44423077 8.39326923,2.11442308 8.25961538,1.80384615 Z" id="路径"></path>
            </g>
        </g>
    </g>
</svg>