<?xml version="1.0" encoding="UTF-8"?>
<svg width="32px" height="32px" viewBox="0 0 32 32" version="1.1" xmlns="http://www.w3.org/2000/svg" xmlns:xlink="http://www.w3.org/1999/xlink">
    <!-- Generator: Sketch 59.1 (86144) - https://sketch.com -->
    <title>02</title>
    <desc>Created with Sketch.</desc>
    <g id="02" stroke="none" stroke-width="1" fill="none" fill-rule="evenodd">
        <g id="heart-fill" fill-rule="nonzero">
            <rect id="矩形" fill="#000000" opacity="0" x="0" y="0" width="32" height="32"></rect>
            <path d="M28.5017855,8.51029349 C28.0826429,7.53871499 27.4820803,6.67023003 26.7219932,5.92358289 C25.9619062,5.1800598 25.0798298,4.59898713 24.0945318,4.18973702 C23.0779544,3.76799073 22.0019464,3.55555556 20.8915312,3.55555556 C19.3494616,3.55555556 17.8449271,3.97730185 16.5374522,4.77393374 C16.2246592,4.96450058 15.9275058,5.1738117 15.6459921,5.40186711 C15.3644784,5.1738117 15.067325,4.96450058 14.754532,4.77393374 C13.4470571,3.97730185 11.9425227,3.55555556 10.400453,3.55555556 C9.2900378,3.55555556 8.21402979,3.76799073 7.19745245,4.18973702 C6.21528234,4.59586308 5.33007807,5.1800598 4.56999102,5.92358289 C3.80677603,6.67023003 3.20934135,7.53871499 2.79019869,8.51029349 C2.35541638,9.51936055 2.13333333,10.5909085 2.13333333,11.693697 C2.13333333,12.7340045 2.34603259,13.8180487 2.76830318,14.9208371 C3.1217593,15.8424309 3.628484,16.7983892 4.27596557,17.7637196 C5.3019267,19.2913784 6.71262325,20.8846421 8.46426421,22.4997742 C11.3669835,25.1770822 14.2415514,27.0265178 14.3635407,27.1014949 L15.1048602,27.57635 C15.4332929,27.7856611 15.8555634,27.7856611 16.1839961,27.57635 L16.9253156,27.1014949 C17.0473049,27.0233937 19.9187449,25.1770822 22.8245921,22.4997742 C24.576233,20.8846421 25.9869296,19.2913784 27.0128907,17.7637196 C27.6603723,16.7983892 28.1702249,15.8424309 28.5205531,14.9208371 C28.9428237,13.8180487 29.1555556,12.7340045 29.1555556,11.693697 C29.1586509,10.5909085 28.9365678,9.51936055 28.5017855,8.51029349 Z" id="路径" fill="#F74557"></path>
        </g>
    </g>
</svg>