<svg width="1020" height="179" xmlns="http://www.w3.org/2000/svg"><path d="M27.2 139l13.2-36.8h58l12.8 36.8H139L87.4.2H52.2L.2 139h27zm63.4-58.8H48.2l20.2-56.6h2.4l19.8 56.6zm88.2 58.8V67c4.6-13.6 13.6-17.2 26.4-17.2 15.2 0 18.6 7 18.6 22.2v67h25V65c0-23-8.8-36-36-36-15 0-27.8 4.4-34 15.6V31h-25v108h25zm135.6 1.2c4.6 0 9.2-.4 13.4-1v-19.8c-3 .8-6 1-9.8 1-11.088 0-13.355-3.332-13.4-16.983V51h23.8V31h-23.8V5.4h-25V31h-15v20h15v54c0 28.4 9 35.2 34.8 35.2zM441 139c40.4 0 67.4-15.8 67.4-69.4 0-57.8-27-69.4-67.4-69.4h-45V139h45zm-1.2-22.6h-17.6v-94h17.6c26.2 0 41.6 8.6 41.6 47.2 0 36.6-14.8 46.8-41.6 46.8zM581 141c17.6 0 33.2-3.4 39.6-7.2v-20.4c-7.4 3.6-22.2 7.4-35.2 7.4-21.6 0-30.4-8.2-31-26.4l70.8-4.6c.6-3.8 1-8.8 1-14.2 0-25.4-7.8-46.6-45.2-46.6-32.8 0-51.8 12.2-51.8 56s19 56 51.8 56zm-26.6-64.4C555 58 561 48.2 581 48.2c19.2 0 22 11.4 22 24.8l-48.6 3.6zm123.4 63.6c27.2 0 42.8-9 42.8-33.2 0-20.2-7.2-27.2-31.2-33l-.992-.248C672.465 69.749 669.2 68.428 669.2 60c0-9 5.2-11.8 19-11.8 9.8 0 21 1.8 26.8 4l1.2-19.6c-5.4-2.2-17.4-3.6-28.8-3.6-29.4 0-41.6 11.8-41.6 31.2 0 18 6 25.6 29.2 30.8 18.2 4.2 22 6.6 22 16.8 0 10.2-6.6 12.8-20.4 12.8-9.8 0-22.8-1.8-32.2-4.8v21c8.6 2.2 21.4 3.4 33.4 3.4zm91.6-1.2V31h-25v108h25zm68.6 40c42 0 57.4-18.4 57.4-48.2V31h-24.8v15.8c-4.2-10.6-13-17.8-33.4-17.8-35.4 0-44.2 25.2-44.2 55 0 32.8 8.8 55 44.2 55 20 0 28.8-6.4 33.4-17v7.6c0 21.8-10.2 29.6-34 29.6-9.4 0-19.6-.8-27.8-3v20.2c8 1.4 19.6 2.6 29.2 2.6zm5.6-58.8c-21.384 0-24.538-15.878-24.6-35.601V84c0-18.6 2.4-35.8 24.6-35.8 23.2 0 28 14 28 35.8 0 23-4.8 36.2-28 36.2zM950 139V67c4.6-13.6 13.6-17.2 26.4-17.2 15.2 0 18.6 7 18.6 22.2v67h25V65c0-23-8.8-36-36-36-15 0-27.8 4.4-34 15.6V31h-25v108h25z" fill="#1A2B3B"/></svg>